<svg width="50" height="50" viewBox="0 0 50 50" fill="none" xmlns="http://www.w3.org/2000/svg">
<g clip-path="url(#clip0_49_584)">
<mask id="mask0_49_584" style="mask-type:alpha" maskUnits="userSpaceOnUse" x="0" y="0" width="50" height="50">
<path d="M43.75 26.6458C43.4223 30.1921 42.0914 33.5717 39.913 36.3891C37.7346 39.2066 34.7989 41.3454 31.4494 42.5553C28.0998 43.7652 24.475 43.9961 20.999 43.221C17.5229 42.446 14.3396 40.697 11.8213 38.1787C9.30303 35.6604 7.55403 32.477 6.77897 29.001C6.0039 25.525 6.23482 21.9002 7.4447 18.5506C8.65458 15.2011 10.7934 12.2653 13.6109 10.087C16.4283 7.90862 19.8079 6.57772 23.3542 6.25C21.2779 9.05889 20.2788 12.5197 20.5386 16.0029C20.7984 19.4862 22.2997 22.7605 24.7696 25.2304C27.2395 27.7003 30.5138 29.2016 33.997 29.4614C37.4803 29.7211 40.9411 28.7221 43.75 26.6458Z" stroke="#1E1E1E" stroke-width="4" stroke-linecap="round" stroke-linejoin="round"/>
</mask>
<g mask="url(#mask0_49_584)">
<rect width="50" height="50" fill="#C323DB"/>
</g>
</g>
<defs>
<clipPath id="clip0_49_584">
<rect width="50" height="50" fill="white"/>
</clipPath>
</defs>
</svg>
